<svg width="312" height="48" viewBox="0 0 312 48" fill="none" xmlns="http://www.w3.org/2000/svg">
<rect x="0.5" y="0.5" width="311" height="47" rx="11.5" stroke="#0B6F62"/>
<path fill-rule="evenodd" clip-rule="evenodd" d="M97.4999 17.3333C97.9602 17.3333 98.3333 17.7063 98.3333 18.1666V23.1666H103.333C103.793 23.1666 104.167 23.5397 104.167 23.9999C104.167 24.4602 103.793 24.8333 103.333 24.8333H98.3333V29.8333C98.3333 30.2935 97.9602 30.6666 97.4999 30.6666C97.0397 30.6666 96.6666 30.2935 96.6666 29.8333V24.8333H91.6666C91.2063 24.8333 90.8333 24.4602 90.8333 23.9999C90.8333 23.5397 91.2063 23.1666 91.6666 23.1666H96.6666V18.1666C96.6666 17.7063 97.0397 17.3333 97.4999 17.3333Z" fill="#0B6F62"/>
<path d="M117.833 30V18.3636H119.589V23.4205H125.39V18.3636H127.151V30H125.39V24.9261H119.589V30H117.833ZM133.248 30.1761C132.43 30.1761 131.716 29.9886 131.106 29.6136C130.496 29.2386 130.022 28.714 129.685 28.0398C129.348 27.3655 129.18 26.5777 129.18 25.6761C129.18 24.7708 129.348 23.9792 129.685 23.3011C130.022 22.6231 130.496 22.0966 131.106 21.7216C131.716 21.3466 132.43 21.1591 133.248 21.1591C134.066 21.1591 134.78 21.3466 135.39 21.7216C136 22.0966 136.473 22.6231 136.81 23.3011C137.147 23.9792 137.316 24.7708 137.316 25.6761C137.316 26.5777 137.147 27.3655 136.81 28.0398C136.473 28.714 136 29.2386 135.39 29.6136C134.78 29.9886 134.066 30.1761 133.248 30.1761ZM133.254 28.75C133.784 28.75 134.223 28.6098 134.572 28.3295C134.92 28.0492 135.178 27.6761 135.344 27.2102C135.515 26.7443 135.6 26.2311 135.6 25.6705C135.6 25.1136 135.515 24.6023 135.344 24.1364C135.178 23.6667 134.92 23.2898 134.572 23.0057C134.223 22.7216 133.784 22.5795 133.254 22.5795C132.719 22.5795 132.276 22.7216 131.924 23.0057C131.576 23.2898 131.316 23.6667 131.146 24.1364C130.979 24.6023 130.896 25.1136 130.896 25.6705C130.896 26.2311 130.979 26.7443 131.146 27.2102C131.316 27.6761 131.576 28.0492 131.924 28.3295C132.276 28.6098 132.719 28.75 133.254 28.75ZM139.212 30V21.2727H142.832C143.817 21.2727 144.597 21.483 145.173 21.9034C145.748 22.3201 146.036 22.8864 146.036 23.6023C146.036 24.1136 145.873 24.5189 145.548 24.8182C145.222 25.1174 144.79 25.3182 144.252 25.4205C144.642 25.4659 145 25.5833 145.326 25.7727C145.652 25.9583 145.913 26.2083 146.11 26.5227C146.311 26.8371 146.411 27.2121 146.411 27.6477C146.411 28.1098 146.292 28.5189 146.053 28.875C145.815 29.2273 145.468 29.5038 145.013 29.7045C144.563 29.9015 144.019 30 143.383 30H139.212ZM140.809 28.5795H143.383C143.803 28.5795 144.133 28.4792 144.371 28.2784C144.61 28.0777 144.729 27.8049 144.729 27.4602C144.729 27.0549 144.61 26.7367 144.371 26.5057C144.133 26.2708 143.803 26.1534 143.383 26.1534H140.809V28.5795ZM140.809 24.9091H142.849C143.167 24.9091 143.44 24.8636 143.667 24.7727C143.898 24.6818 144.074 24.553 144.195 24.3864C144.32 24.2159 144.383 24.0152 144.383 23.7841C144.383 23.447 144.245 23.1837 143.968 22.9943C143.692 22.8049 143.313 22.7102 142.832 22.7102H140.809V24.9091ZM150.815 30.1932C150.262 30.1932 149.762 30.0909 149.315 29.8864C148.868 29.678 148.513 29.3769 148.252 28.983C147.995 28.589 147.866 28.1061 147.866 27.5341C147.866 27.0417 147.96 26.6364 148.15 26.3182C148.339 26 148.595 25.7481 148.917 25.5625C149.239 25.3769 149.599 25.2367 149.996 25.142C150.394 25.0473 150.799 24.9754 151.212 24.9261C151.735 24.8655 152.159 24.8163 152.485 24.7784C152.811 24.7367 153.048 24.6705 153.195 24.5795C153.343 24.4886 153.417 24.3409 153.417 24.1364V24.0966C153.417 23.6004 153.277 23.2159 152.996 22.9432C152.72 22.6705 152.307 22.5341 151.758 22.5341C151.186 22.5341 150.735 22.661 150.406 22.9148C150.08 23.1648 149.854 23.4432 149.729 23.75L148.133 23.3864C148.322 22.8561 148.599 22.428 148.962 22.1023C149.33 21.7727 149.752 21.5341 150.229 21.3864C150.707 21.2348 151.209 21.1591 151.735 21.1591C152.084 21.1591 152.453 21.2008 152.843 21.2841C153.237 21.3636 153.604 21.5114 153.945 21.7273C154.29 21.9432 154.572 22.2519 154.792 22.6534C155.012 23.0511 155.121 23.5682 155.121 24.2045V30H153.462V28.8068H153.394C153.284 29.0265 153.12 29.2424 152.9 29.4545C152.68 29.6667 152.398 29.8428 152.053 29.983C151.709 30.1231 151.296 30.1932 150.815 30.1932ZM151.184 28.8295C151.654 28.8295 152.055 28.7367 152.388 28.5511C152.726 28.3655 152.981 28.1231 153.156 27.8239C153.334 27.5208 153.423 27.197 153.423 26.8523V25.7273C153.362 25.7879 153.245 25.8447 153.07 25.8977C152.9 25.947 152.705 25.9905 152.485 26.0284C152.265 26.0625 152.051 26.0947 151.843 26.125C151.635 26.1515 151.46 26.1742 151.32 26.1932C150.991 26.2348 150.69 26.3049 150.417 26.4034C150.148 26.5019 149.932 26.6439 149.769 26.8295C149.61 27.0114 149.531 27.2538 149.531 27.5568C149.531 27.9773 149.686 28.2955 149.996 28.5114C150.307 28.7235 150.703 28.8295 151.184 28.8295ZM162.589 30V22.7216H160.498C160.002 22.7216 159.615 22.8371 159.339 23.0682C159.062 23.2992 158.924 23.6023 158.924 23.9773C158.924 24.3485 159.051 24.6477 159.305 24.875C159.562 25.0985 159.922 25.2102 160.384 25.2102H163.083V26.5852H160.384C159.74 26.5852 159.183 26.4792 158.714 26.267C158.248 26.0511 157.888 25.7462 157.634 25.3523C157.384 24.9583 157.259 24.4924 157.259 23.9545C157.259 23.4053 157.388 22.9318 157.646 22.5341C157.907 22.1326 158.28 21.822 158.765 21.6023C159.254 21.3826 159.831 21.2727 160.498 21.2727H164.185V30H162.589ZM156.862 30L159.322 25.5909H161.06L158.6 30H156.862ZM170.164 27.6932H171.903C171.925 28.0492 172.086 28.3239 172.386 28.517C172.689 28.7102 173.081 28.8068 173.562 28.8068C174.05 28.8068 174.467 28.7027 174.812 28.4943C175.156 28.2822 175.329 27.9545 175.329 27.5114C175.329 27.2462 175.263 27.0152 175.13 26.8182C175.001 26.6174 174.817 26.4621 174.579 26.3523C174.344 26.2424 174.066 26.1875 173.744 26.1875H172.323V24.8523H173.744C174.225 24.8523 174.585 24.7424 174.823 24.5227C175.062 24.303 175.181 24.0284 175.181 23.6989C175.181 23.3428 175.052 23.0568 174.795 22.8409C174.541 22.6212 174.187 22.5114 173.732 22.5114C173.27 22.5114 172.886 22.6155 172.579 22.8239C172.272 23.0284 172.111 23.2936 172.096 23.6193H170.38C170.391 23.1307 170.539 22.7027 170.823 22.3352C171.111 21.964 171.497 21.6761 171.982 21.4716C172.471 21.2633 173.026 21.1591 173.647 21.1591C174.295 21.1591 174.855 21.2633 175.329 21.4716C175.802 21.6799 176.168 21.9678 176.425 22.3352C176.687 22.7027 176.817 23.125 176.817 23.6023C176.817 24.0833 176.674 24.4773 176.386 24.7841C176.102 25.0871 175.73 25.3049 175.272 25.4375V25.5284C175.609 25.5511 175.908 25.6534 176.17 25.8352C176.431 26.017 176.636 26.2576 176.783 26.5568C176.931 26.8561 177.005 27.1951 177.005 27.5739C177.005 28.108 176.857 28.5701 176.562 28.9602C176.27 29.3504 175.865 29.6515 175.346 29.8636C174.831 30.072 174.242 30.1761 173.579 30.1761C172.935 30.1761 172.357 30.0758 171.846 29.875C171.338 29.6705 170.935 29.3826 170.636 29.0114C170.34 28.6402 170.183 28.2008 170.164 27.6932ZM181.299 30.1932C180.746 30.1932 180.246 30.0909 179.799 29.8864C179.352 29.678 178.998 29.3769 178.737 28.983C178.479 28.589 178.35 28.1061 178.35 27.5341C178.35 27.0417 178.445 26.6364 178.634 26.3182C178.824 26 179.079 25.7481 179.401 25.5625C179.723 25.3769 180.083 25.2367 180.481 25.142C180.879 25.0473 181.284 24.9754 181.697 24.9261C182.219 24.8655 182.644 24.8163 182.969 24.7784C183.295 24.7367 183.532 24.6705 183.68 24.5795C183.827 24.4886 183.901 24.3409 183.901 24.1364V24.0966C183.901 23.6004 183.761 23.2159 183.481 22.9432C183.204 22.6705 182.791 22.5341 182.242 22.5341C181.67 22.5341 181.219 22.661 180.89 22.9148C180.564 23.1648 180.339 23.4432 180.214 23.75L178.617 23.3864C178.807 22.8561 179.083 22.428 179.447 22.1023C179.814 21.7727 180.237 21.5341 180.714 21.3864C181.191 21.2348 181.693 21.1591 182.219 21.1591C182.568 21.1591 182.937 21.2008 183.327 21.2841C183.721 21.3636 184.089 21.5114 184.43 21.7273C184.774 21.9432 185.057 22.2519 185.276 22.6534C185.496 23.0511 185.606 23.5682 185.606 24.2045V30H183.947V28.8068H183.879C183.769 29.0265 183.604 29.2424 183.384 29.4545C183.165 29.6667 182.882 29.8428 182.538 29.983C182.193 30.1231 181.78 30.1932 181.299 30.1932ZM181.668 28.8295C182.138 28.8295 182.54 28.7367 182.873 28.5511C183.21 28.3655 183.466 28.1231 183.64 27.8239C183.818 27.5208 183.907 27.197 183.907 26.8523V25.7273C183.846 25.7879 183.729 25.8447 183.555 25.8977C183.384 25.947 183.189 25.9905 182.969 26.0284C182.75 26.0625 182.536 26.0947 182.327 26.125C182.119 26.1515 181.945 26.1742 181.805 26.1932C181.475 26.2348 181.174 26.3049 180.901 26.4034C180.632 26.5019 180.416 26.6439 180.254 26.8295C180.094 27.0114 180.015 27.2538 180.015 27.5568C180.015 27.9773 180.17 28.2955 180.481 28.5114C180.791 28.7235 181.187 28.8295 181.668 28.8295ZM187.016 32.517V28.5284H187.727C187.908 28.3617 188.062 28.1629 188.187 27.9318C188.316 27.7008 188.424 27.4261 188.511 27.108C188.602 26.7898 188.677 26.4186 188.738 25.9943C188.799 25.5663 188.852 25.0777 188.897 24.5284L189.17 21.2727H195.102V28.5284H196.442V32.517H194.783V30H188.698V32.517H187.016ZM189.545 28.5284H193.442V22.7273H190.692L190.511 24.5284C190.424 25.4451 190.314 26.2405 190.181 26.9148C190.049 27.5852 189.836 28.1231 189.545 28.5284ZM200.643 30.1932C200.09 30.1932 199.59 30.0909 199.143 29.8864C198.696 29.678 198.342 29.3769 198.08 28.983C197.823 28.589 197.694 28.1061 197.694 27.5341C197.694 27.0417 197.789 26.6364 197.978 26.3182C198.167 26 198.423 25.7481 198.745 25.5625C199.067 25.3769 199.427 25.2367 199.825 25.142C200.222 25.0473 200.628 24.9754 201.04 24.9261C201.563 24.8655 201.987 24.8163 202.313 24.7784C202.639 24.7367 202.876 24.6705 203.023 24.5795C203.171 24.4886 203.245 24.3409 203.245 24.1364V24.0966C203.245 23.6004 203.105 23.2159 202.825 22.9432C202.548 22.6705 202.135 22.5341 201.586 22.5341C201.014 22.5341 200.563 22.661 200.234 22.9148C199.908 23.1648 199.683 23.4432 199.558 23.75L197.961 23.3864C198.15 22.8561 198.427 22.428 198.79 22.1023C199.158 21.7727 199.58 21.5341 200.058 21.3864C200.535 21.2348 201.037 21.1591 201.563 21.1591C201.912 21.1591 202.281 21.2008 202.671 21.2841C203.065 21.3636 203.433 21.5114 203.773 21.7273C204.118 21.9432 204.4 22.2519 204.62 22.6534C204.84 23.0511 204.95 23.5682 204.95 24.2045V30H203.29V28.8068H203.222C203.112 29.0265 202.948 29.2424 202.728 29.4545C202.508 29.6667 202.226 29.8428 201.881 29.983C201.537 30.1231 201.124 30.1932 200.643 30.1932ZM201.012 28.8295C201.482 28.8295 201.883 28.7367 202.217 28.5511C202.554 28.3655 202.809 28.1231 202.984 27.8239C203.162 27.5208 203.251 27.197 203.251 26.8523V25.7273C203.19 25.7879 203.073 25.8447 202.898 25.8977C202.728 25.947 202.533 25.9905 202.313 26.0284C202.094 26.0625 201.879 26.0947 201.671 26.125C201.463 26.1515 201.289 26.1742 201.148 26.1932C200.819 26.2348 200.518 26.3049 200.245 26.4034C199.976 26.5019 199.76 26.6439 199.597 26.8295C199.438 27.0114 199.359 27.2538 199.359 27.5568C199.359 27.9773 199.514 28.2955 199.825 28.5114C200.135 28.7235 200.531 28.8295 201.012 28.8295ZM214.218 21.2727V30H212.559V21.2727H214.218ZM213.496 25.3239V26.7898C213.235 26.8958 212.959 26.9905 212.667 27.0739C212.375 27.1534 212.068 27.2159 211.746 27.2614C211.424 27.3068 211.089 27.3295 210.741 27.3295C209.661 27.3295 208.803 27.0663 208.167 26.5398C207.531 26.0095 207.212 25.1989 207.212 24.108V21.2557H208.866V24.108C208.866 24.5208 208.942 24.8561 209.093 25.1136C209.245 25.3712 209.46 25.5606 209.741 25.6818C210.021 25.803 210.354 25.8636 210.741 25.8636C211.252 25.8636 211.724 25.8163 212.156 25.7216C212.591 25.6231 213.038 25.4905 213.496 25.3239ZM219.018 30.1932C218.465 30.1932 217.965 30.0909 217.518 29.8864C217.071 29.678 216.717 29.3769 216.455 28.983C216.198 28.589 216.069 28.1061 216.069 27.5341C216.069 27.0417 216.164 26.6364 216.353 26.3182C216.542 26 216.798 25.7481 217.12 25.5625C217.442 25.3769 217.802 25.2367 218.2 25.142C218.597 25.0473 219.003 24.9754 219.415 24.9261C219.938 24.8655 220.362 24.8163 220.688 24.7784C221.014 24.7367 221.251 24.6705 221.398 24.5795C221.546 24.4886 221.62 24.3409 221.62 24.1364V24.0966C221.62 23.6004 221.48 23.2159 221.2 22.9432C220.923 22.6705 220.51 22.5341 219.961 22.5341C219.389 22.5341 218.938 22.661 218.609 22.9148C218.283 23.1648 218.058 23.4432 217.933 23.75L216.336 23.3864C216.525 22.8561 216.802 22.428 217.165 22.1023C217.533 21.7727 217.955 21.5341 218.433 21.3864C218.91 21.2348 219.412 21.1591 219.938 21.1591C220.287 21.1591 220.656 21.2008 221.046 21.2841C221.44 21.3636 221.808 21.5114 222.148 21.7273C222.493 21.9432 222.775 22.2519 222.995 22.6534C223.215 23.0511 223.325 23.5682 223.325 24.2045V30H221.665V28.8068H221.597C221.487 29.0265 221.323 29.2424 221.103 29.4545C220.883 29.6667 220.601 29.8428 220.256 29.983C219.912 30.1231 219.499 30.1932 219.018 30.1932ZM219.387 28.8295C219.857 28.8295 220.258 28.7367 220.592 28.5511C220.929 28.3655 221.184 28.1231 221.359 27.8239C221.537 27.5208 221.626 27.197 221.626 26.8523V25.7273C221.565 25.7879 221.448 25.8447 221.273 25.8977C221.103 25.947 220.908 25.9905 220.688 26.0284C220.469 26.0625 220.254 26.0947 220.046 26.125C219.838 26.1515 219.664 26.1742 219.523 26.1932C219.194 26.2348 218.893 26.3049 218.62 26.4034C218.351 26.5019 218.135 26.6439 217.972 26.8295C217.813 27.0114 217.734 27.2538 217.734 27.5568C217.734 27.9773 217.889 28.2955 218.2 28.5114C218.51 28.7235 218.906 28.8295 219.387 28.8295Z" fill="#0B6F62"/>
</svg>
